<?xml version="1.0" encoding="iso-8859-1"?>
<!-- Generator: Adobe Illustrator 19.0.0, SVG Export Plug-In . SVG Version: 6.00 Build 0)  -->
<svg version="1.1" id="Layer_1" xmlns="http://www.w3.org/2000/svg" xmlns:xlink="http://www.w3.org/1999/xlink" x="0px" y="0px"
	 viewBox="0 0 512 512" style="enable-background:new 0 0 512 512;" xml:space="preserve">
<g>
	<g>
		<path d="M461.913,133.565h-93.318c44.298,228.882,45.857,224.35,41.519,241.03c-5.133,19.281-7.784,17.844-137.307,137.405
			h189.106C489.532,512,512,489.532,512,461.913V183.652C512,156.033,489.533,133.565,461.913,133.565z"/>
	</g>
</g>
<g>
	<g>
		<path d="M183.32,411.826l17.353,86.749c1.184,5.924,5.467,10.739,11.217,12.609c5.86,1.89,12.122,0.415,16.479-3.609
			l103.728-95.75H183.32z"/>
	</g>
</g>
<g>
	<g>
		<path d="M378.131,358.565L311.348,13.521C309.826,5.674,302.957,0,294.957,0H50.087C22.468,0,0,22.468,0,50.087v278.261
			c0,27.619,22.468,50.087,50.087,50.087h311.652c4.989,0,9.707-2.228,12.88-6.076C377.794,368.522,379.076,363.457,378.131,358.565
			z M166.957,256c-36.815,0-66.783-29.968-66.783-66.783c0-36.815,29.968-66.783,66.783-66.783c9.032,0,17.804,1.793,26.022,5.282
			c8.478,3.62,12.424,13.434,8.804,21.914c-3.62,8.446-13.402,12.424-21.914,8.804c-4.043-1.729-8.412-2.609-12.912-2.609
			c-18.424,0-33.391,14.967-33.391,33.391s14.967,33.391,33.391,33.391c12.326,0,23.119-6.717,28.924-16.696h-12.228
			c-9.228,0-16.696-7.467-16.696-16.696c0-9.228,7.467-16.696,16.696-16.696h33.391c9.228,0,16.696,7.467,16.696,16.696
			C233.739,226.032,203.772,256,166.957,256z"/>
	</g>
</g>
<g>
</g>
<g>
</g>
<g>
</g>
<g>
</g>
<g>
</g>
<g>
</g>
<g>
</g>
<g>
</g>
<g>
</g>
<g>
</g>
<g>
</g>
<g>
</g>
<g>
</g>
<g>
</g>
<g>
</g>
</svg>
